<svg width="22" height="22" viewBox="0 0 22 22" fill="none" xmlns="http://www.w3.org/2000/svg">
<mask id="mask0_1732_222" style="mask-type:luminance" maskUnits="userSpaceOnUse" x="2" y="2" width="18" height="18">
<path d="M2.29175 2.29169H19.7084V19.7084H2.29175V2.29169Z" fill="white"/>
</mask>
<g mask="url(#mask0_1732_222)">
<path d="M12.6409 2.42004L12.1184 2.3467C10.5481 2.11997 8.94569 2.34428 7.49799 2.99347C6.05029 3.64267 4.81695 4.69 3.94175 6.01337C3.01056 7.27835 2.45545 8.78055 2.34031 10.3471C2.22517 11.9136 2.55468 13.4808 3.29091 14.8684C3.36626 15.0074 3.41317 15.1601 3.42891 15.3175C3.44465 15.4749 3.4289 15.6338 3.38258 15.785C3.00675 17.0775 2.65841 18.3792 2.29175 19.745L2.75008 19.6075C3.98758 19.2775 5.22508 18.9475 6.46258 18.645C6.72378 18.5907 6.99527 18.6163 7.24175 18.7184C8.35201 19.2602 9.56534 19.5583 10.8003 19.5927C12.0352 19.627 13.2633 19.3968 14.4019 18.9175C15.5406 18.4382 16.5636 17.7208 17.4022 16.8136C18.2408 15.9064 18.8756 14.8303 19.2641 13.6576C19.6526 12.4848 19.7858 11.2425 19.6547 10.0141C19.5235 8.78562 19.1312 7.59942 18.5039 6.5351C17.8766 5.47077 17.0289 4.55293 16.0176 3.84318C15.0064 3.13344 13.8551 2.6482 12.6409 2.42004ZM14.9509 14.4467C14.6178 14.745 14.2115 14.9496 13.7735 15.0398C13.3355 15.13 12.8815 15.1025 12.4576 14.96C10.5368 14.4192 8.87031 13.214 7.75508 11.5592C7.32909 10.9739 6.98664 10.3322 6.73758 9.65254C6.6027 9.25816 6.57837 8.83439 6.66725 8.42717C6.75613 8.01995 6.95481 7.64485 7.24175 7.34254C7.38143 7.16426 7.57158 7.03218 7.7874 6.96351C8.00322 6.89484 8.23472 6.89276 8.45175 6.95754C8.63508 7.00337 8.76341 7.2692 8.92841 7.47087C9.06225 7.84945 9.219 8.21979 9.39591 8.58004C9.53014 8.76384 9.58619 8.99327 9.55185 9.21826C9.5175 9.44324 9.39553 9.6455 9.21258 9.78087C8.80008 10.1475 8.86425 10.45 9.15758 10.8625C9.80607 11.7968 10.7009 12.5329 11.7426 12.9892C12.0359 13.1175 12.2559 13.145 12.4484 12.8425C12.5309 12.7234 12.6409 12.6225 12.7326 12.5125C13.2642 11.8434 13.0992 11.8525 13.9426 12.2192C14.2112 12.332 14.4715 12.464 14.7217 12.6134C14.9692 12.76 15.3451 12.9159 15.4001 13.1359C15.453 13.3745 15.4391 13.6232 15.3598 13.8544C15.2806 14.0857 15.1391 14.2906 14.9509 14.4467Z" fill="#004AAD"/>
</g>
</svg>
